<mxfile host="app.diagrams.net" modified="2022-12-02T18:45:39.844Z" agent="5.0 (Windows)" version="20.6.0" etag="w_wbyJc7WyXdCayh_FH-" type="github">
  <diagram id="ww6lJD0BNJsKOblYStpK" name="PÃ¡gina-1">
    <mxGraphModel dx="1662" dy="780" grid="1" gridSize="10" guides="1" tooltips="1" connect="1" arrows="1" fold="1" page="1" pageScale="1" pageWidth="850" pageHeight="1100" math="0" shadow="0">
      <root>
        <mxCell id="0" />
        <mxCell id="1" parent="0" />
        <mxCell id="1s9dPwqFM8-csKDG2qS5-1" value="" style="ellipse;whiteSpace=wrap;html=1;aspect=fixed;" vertex="1" parent="1">
          <mxGeometry x="95" y="70" width="30" height="30" as="geometry" />
        </mxCell>
        <mxCell id="1s9dPwqFM8-csKDG2qS5-2" value="" style="ellipse;whiteSpace=wrap;html=1;aspect=fixed;" vertex="1" parent="1">
          <mxGeometry x="45" y="190" width="30" height="30" as="geometry" />
        </mxCell>
        <mxCell id="1s9dPwqFM8-csKDG2qS5-3" value="" style="ellipse;whiteSpace=wrap;html=1;aspect=fixed;" vertex="1" parent="1">
          <mxGeometry x="60" y="250" width="30" height="30" as="geometry" />
        </mxCell>
        <mxCell id="1s9dPwqFM8-csKDG2qS5-5" value="Provedores" style="rounded=0;whiteSpace=wrap;html=1;" vertex="1" parent="1">
          <mxGeometry x="150" y="200" width="120" height="60" as="geometry" />
        </mxCell>
        <mxCell id="1s9dPwqFM8-csKDG2qS5-7" value="Cod_profesor" style="text;html=1;align=center;verticalAlign=middle;resizable=0;points=[];autosize=1;strokeColor=none;fillColor=none;" vertex="1" parent="1">
          <mxGeometry x="70" y="40" width="100" height="30" as="geometry" />
        </mxCell>
        <mxCell id="1s9dPwqFM8-csKDG2qS5-8" value="Dir_profesor" style="text;html=1;align=center;verticalAlign=middle;resizable=0;points=[];autosize=1;strokeColor=none;fillColor=none;" vertex="1" parent="1">
          <mxGeometry x="15" y="165" width="90" height="30" as="geometry" />
        </mxCell>
        <mxCell id="1s9dPwqFM8-csKDG2qS5-10" value="Tel_profesor" style="text;html=1;align=center;verticalAlign=middle;resizable=0;points=[];autosize=1;strokeColor=none;fillColor=none;" vertex="1" parent="1">
          <mxGeometry x="5" y="225" width="90" height="30" as="geometry" />
        </mxCell>
        <mxCell id="1s9dPwqFM8-csKDG2qS5-11" value="" style="ellipse;whiteSpace=wrap;html=1;aspect=fixed;" vertex="1" parent="1">
          <mxGeometry x="60" y="130" width="30" height="30" as="geometry" />
        </mxCell>
        <mxCell id="1s9dPwqFM8-csKDG2qS5-12" value="Nombre_profesor" style="text;html=1;align=center;verticalAlign=middle;resizable=0;points=[];autosize=1;strokeColor=none;fillColor=none;" vertex="1" parent="1">
          <mxGeometry x="15" y="100" width="120" height="30" as="geometry" />
        </mxCell>
        <mxCell id="1s9dPwqFM8-csKDG2qS5-15" value="impartir" style="rhombus;whiteSpace=wrap;html=1;" vertex="1" parent="1">
          <mxGeometry x="370" y="190" width="80" height="80" as="geometry" />
        </mxCell>
        <mxCell id="1s9dPwqFM8-csKDG2qS5-16" value="Materia" style="rounded=0;whiteSpace=wrap;html=1;" vertex="1" parent="1">
          <mxGeometry x="540" y="200" width="120" height="60" as="geometry" />
        </mxCell>
        <mxCell id="1s9dPwqFM8-csKDG2qS5-18" value="1" style="text;html=1;align=center;verticalAlign=middle;resizable=0;points=[];autosize=1;strokeColor=none;fillColor=none;" vertex="1" parent="1">
          <mxGeometry x="280" y="160" width="30" height="30" as="geometry" />
        </mxCell>
        <mxCell id="1s9dPwqFM8-csKDG2qS5-19" value="N.M" style="text;html=1;align=center;verticalAlign=middle;resizable=0;points=[];autosize=1;strokeColor=none;fillColor=none;" vertex="1" parent="1">
          <mxGeometry x="370" y="135" width="40" height="30" as="geometry" />
        </mxCell>
        <mxCell id="1s9dPwqFM8-csKDG2qS5-23" value="" style="endArrow=none;html=1;rounded=0;entryX=1;entryY=0.5;entryDx=0;entryDy=0;" edge="1" parent="1" target="1s9dPwqFM8-csKDG2qS5-5">
          <mxGeometry width="50" height="50" relative="1" as="geometry">
            <mxPoint x="300" y="229.5" as="sourcePoint" />
            <mxPoint x="280" y="229.5" as="targetPoint" />
            <Array as="points">
              <mxPoint x="370" y="229.5" />
            </Array>
          </mxGeometry>
        </mxCell>
        <mxCell id="1s9dPwqFM8-csKDG2qS5-24" value="" style="ellipse;whiteSpace=wrap;html=1;aspect=fixed;" vertex="1" parent="1">
          <mxGeometry x="760" y="260" width="30" height="30" as="geometry" />
        </mxCell>
        <mxCell id="1s9dPwqFM8-csKDG2qS5-25" value="" style="ellipse;whiteSpace=wrap;html=1;aspect=fixed;" vertex="1" parent="1">
          <mxGeometry x="750" y="105" width="30" height="30" as="geometry" />
        </mxCell>
        <mxCell id="1s9dPwqFM8-csKDG2qS5-34" value="" style="endArrow=none;html=1;rounded=0;entryX=1;entryY=0.25;entryDx=0;entryDy=0;" edge="1" parent="1">
          <mxGeometry width="50" height="50" relative="1" as="geometry">
            <mxPoint x="710" y="167" as="sourcePoint" />
            <mxPoint x="660" y="212" as="targetPoint" />
            <Array as="points">
              <mxPoint x="720" y="157" />
              <mxPoint x="750" y="127" />
            </Array>
          </mxGeometry>
        </mxCell>
        <mxCell id="1s9dPwqFM8-csKDG2qS5-36" value="" style="endArrow=none;html=1;rounded=0;entryX=1;entryY=0.5;entryDx=0;entryDy=0;" edge="1" parent="1" target="1s9dPwqFM8-csKDG2qS5-15">
          <mxGeometry width="50" height="50" relative="1" as="geometry">
            <mxPoint x="480" y="230" as="sourcePoint" />
            <mxPoint x="460" y="220.5" as="targetPoint" />
            <Array as="points">
              <mxPoint x="540" y="230" />
              <mxPoint x="490" y="230" />
            </Array>
          </mxGeometry>
        </mxCell>
        <mxCell id="1s9dPwqFM8-csKDG2qS5-38" value="" style="endArrow=none;html=1;rounded=0;exitX=1;exitY=0.75;exitDx=0;exitDy=0;entryX=0;entryY=0.5;entryDx=0;entryDy=0;" edge="1" parent="1" source="1s9dPwqFM8-csKDG2qS5-16" target="1s9dPwqFM8-csKDG2qS5-24">
          <mxGeometry width="50" height="50" relative="1" as="geometry">
            <mxPoint x="670" y="270" as="sourcePoint" />
            <mxPoint x="750" y="270" as="targetPoint" />
            <Array as="points" />
          </mxGeometry>
        </mxCell>
        <mxCell id="1s9dPwqFM8-csKDG2qS5-39" value="Cod_materia" style="text;html=1;align=center;verticalAlign=middle;resizable=0;points=[];autosize=1;strokeColor=none;fillColor=none;" vertex="1" parent="1">
          <mxGeometry x="710" y="75" width="100" height="30" as="geometry" />
        </mxCell>
        <mxCell id="1s9dPwqFM8-csKDG2qS5-40" value="Nombre_materia" style="text;html=1;align=center;verticalAlign=middle;resizable=0;points=[];autosize=1;strokeColor=none;fillColor=none;" vertex="1" parent="1">
          <mxGeometry x="715" y="290" width="120" height="30" as="geometry" />
        </mxCell>
        <mxCell id="1s9dPwqFM8-csKDG2qS5-42" value="alumnos" style="rounded=0;whiteSpace=wrap;html=1;" vertex="1" parent="1">
          <mxGeometry x="550" y="480" width="120" height="60" as="geometry" />
        </mxCell>
        <mxCell id="1s9dPwqFM8-csKDG2qS5-44" value="" style="endArrow=none;html=1;rounded=0;exitX=0.5;exitY=1;exitDx=0;exitDy=0;entryX=0.5;entryY=0;entryDx=0;entryDy=0;" edge="1" parent="1" target="1s9dPwqFM8-csKDG2qS5-41">
          <mxGeometry width="50" height="50" relative="1" as="geometry">
            <mxPoint x="600" y="300" as="sourcePoint" />
            <mxPoint x="600" y="320" as="targetPoint" />
            <Array as="points">
              <mxPoint x="600" y="260" />
            </Array>
          </mxGeometry>
        </mxCell>
        <mxCell id="1s9dPwqFM8-csKDG2qS5-41" value="asignar" style="rhombus;whiteSpace=wrap;html=1;" vertex="1" parent="1">
          <mxGeometry x="560" y="330" width="80" height="80" as="geometry" />
        </mxCell>
        <mxCell id="1s9dPwqFM8-csKDG2qS5-49" value="" style="endArrow=none;html=1;rounded=0;exitX=0.5;exitY=1;exitDx=0;exitDy=0;entryX=0.425;entryY=-0.05;entryDx=0;entryDy=0;entryPerimeter=0;" edge="1" parent="1" source="1s9dPwqFM8-csKDG2qS5-41" target="1s9dPwqFM8-csKDG2qS5-42">
          <mxGeometry width="50" height="50" relative="1" as="geometry">
            <mxPoint x="570" y="420" as="sourcePoint" />
            <mxPoint x="600" y="470" as="targetPoint" />
            <Array as="points">
              <mxPoint x="600" y="420" />
            </Array>
          </mxGeometry>
        </mxCell>
        <mxCell id="1s9dPwqFM8-csKDG2qS5-50" value="" style="ellipse;whiteSpace=wrap;html=1;aspect=fixed;fillColor=#333333;" vertex="1" parent="1">
          <mxGeometry x="750" y="450" width="30" height="30" as="geometry" />
        </mxCell>
        <mxCell id="1s9dPwqFM8-csKDG2qS5-51" value="" style="ellipse;whiteSpace=wrap;html=1;aspect=fixed;" vertex="1" parent="1">
          <mxGeometry x="780" y="535" width="30" height="30" as="geometry" />
        </mxCell>
        <mxCell id="1s9dPwqFM8-csKDG2qS5-52" value="" style="ellipse;whiteSpace=wrap;html=1;aspect=fixed;" vertex="1" parent="1">
          <mxGeometry x="745" y="620" width="30" height="30" as="geometry" />
        </mxCell>
        <mxCell id="1s9dPwqFM8-csKDG2qS5-53" value="" style="ellipse;whiteSpace=wrap;html=1;aspect=fixed;" vertex="1" parent="1">
          <mxGeometry x="700" y="660" width="35" height="35" as="geometry" />
        </mxCell>
        <mxCell id="1s9dPwqFM8-csKDG2qS5-54" value="Noexp_alumno" style="text;html=1;align=center;verticalAlign=middle;resizable=0;points=[];autosize=1;strokeColor=none;fillColor=none;" vertex="1" parent="1">
          <mxGeometry x="705" y="425" width="110" height="30" as="geometry" />
        </mxCell>
        <mxCell id="1s9dPwqFM8-csKDG2qS5-55" value="Nombre_alumno" style="text;html=1;align=center;verticalAlign=middle;resizable=0;points=[];autosize=1;strokeColor=none;fillColor=none;" vertex="1" parent="1">
          <mxGeometry x="680" y="505" width="120" height="30" as="geometry" />
        </mxCell>
        <mxCell id="1s9dPwqFM8-csKDG2qS5-56" value="Apellido_alumno" style="text;html=1;align=center;verticalAlign=middle;resizable=0;points=[];autosize=1;strokeColor=none;fillColor=none;" vertex="1" parent="1">
          <mxGeometry x="680" y="565" width="120" height="30" as="geometry" />
        </mxCell>
        <mxCell id="1s9dPwqFM8-csKDG2qS5-60" value="" style="endArrow=none;html=1;rounded=0;exitX=1;exitY=0.25;exitDx=0;exitDy=0;entryX=0;entryY=0;entryDx=0;entryDy=0;" edge="1" parent="1" source="1s9dPwqFM8-csKDG2qS5-42" target="1s9dPwqFM8-csKDG2qS5-50">
          <mxGeometry width="50" height="50" relative="1" as="geometry">
            <mxPoint x="700" y="480" as="sourcePoint" />
            <mxPoint x="720" y="480" as="targetPoint" />
            <Array as="points" />
          </mxGeometry>
        </mxCell>
        <mxCell id="1s9dPwqFM8-csKDG2qS5-65" value="" style="endArrow=none;html=1;rounded=0;exitX=1;exitY=1;exitDx=0;exitDy=0;entryX=-0.067;entryY=0.833;entryDx=0;entryDy=0;entryPerimeter=0;" edge="1" parent="1" source="1s9dPwqFM8-csKDG2qS5-42" target="1s9dPwqFM8-csKDG2qS5-51">
          <mxGeometry width="50" height="50" relative="1" as="geometry">
            <mxPoint x="700" y="550" as="sourcePoint" />
            <mxPoint x="784.3933982822018" y="509.3933982822018" as="targetPoint" />
            <Array as="points" />
          </mxGeometry>
        </mxCell>
        <mxCell id="1s9dPwqFM8-csKDG2qS5-69" value="" style="endArrow=none;html=1;rounded=0;entryX=0;entryY=0;entryDx=0;entryDy=0;" edge="1" parent="1" target="1s9dPwqFM8-csKDG2qS5-52">
          <mxGeometry width="50" height="50" relative="1" as="geometry">
            <mxPoint x="690" y="590" as="sourcePoint" />
            <mxPoint x="797.9899999999998" y="629.99" as="targetPoint" />
            <Array as="points">
              <mxPoint x="620" y="540" />
              <mxPoint x="720" y="610" />
            </Array>
          </mxGeometry>
        </mxCell>
        <mxCell id="1s9dPwqFM8-csKDG2qS5-75" value="FNac_alumno" style="text;html=1;align=center;verticalAlign=middle;resizable=0;points=[];autosize=1;strokeColor=none;fillColor=none;" vertex="1" parent="1">
          <mxGeometry x="640" y="695" width="100" height="30" as="geometry" />
        </mxCell>
        <mxCell id="1s9dPwqFM8-csKDG2qS5-77" value="" style="endArrow=none;html=1;rounded=0;entryX=0.333;entryY=0;entryDx=0;entryDy=0;entryPerimeter=0;exitX=0.908;exitY=-0.167;exitDx=0;exitDy=0;exitPerimeter=0;" edge="1" parent="1" source="1s9dPwqFM8-csKDG2qS5-12" target="1s9dPwqFM8-csKDG2qS5-5">
          <mxGeometry width="50" height="50" relative="1" as="geometry">
            <mxPoint x="140" y="90" as="sourcePoint" />
            <mxPoint x="190" y="40" as="targetPoint" />
          </mxGeometry>
        </mxCell>
        <mxCell id="1s9dPwqFM8-csKDG2qS5-78" value="" style="endArrow=none;html=1;rounded=0;exitX=1;exitY=0.5;exitDx=0;exitDy=0;entryX=0.083;entryY=0;entryDx=0;entryDy=0;entryPerimeter=0;" edge="1" parent="1" source="1s9dPwqFM8-csKDG2qS5-11" target="1s9dPwqFM8-csKDG2qS5-5">
          <mxGeometry width="50" height="50" relative="1" as="geometry">
            <mxPoint x="120" y="160" as="sourcePoint" />
            <mxPoint x="170" y="110" as="targetPoint" />
          </mxGeometry>
        </mxCell>
        <mxCell id="1s9dPwqFM8-csKDG2qS5-79" value="" style="endArrow=none;html=1;rounded=0;entryX=-0.033;entryY=0.9;entryDx=0;entryDy=0;entryPerimeter=0;" edge="1" parent="1" target="1s9dPwqFM8-csKDG2qS5-5">
          <mxGeometry width="50" height="50" relative="1" as="geometry">
            <mxPoint x="120" y="240" as="sourcePoint" />
            <mxPoint x="199.96000000000004" y="295" as="targetPoint" />
            <Array as="points">
              <mxPoint x="70" y="200" />
            </Array>
          </mxGeometry>
        </mxCell>
        <mxCell id="1s9dPwqFM8-csKDG2qS5-80" value="" style="endArrow=none;html=1;rounded=0;exitX=1;exitY=1;exitDx=0;exitDy=0;entryX=0.075;entryY=1.033;entryDx=0;entryDy=0;entryPerimeter=0;" edge="1" parent="1" source="1s9dPwqFM8-csKDG2qS5-3" target="1s9dPwqFM8-csKDG2qS5-5">
          <mxGeometry width="50" height="50" relative="1" as="geometry">
            <mxPoint x="100" y="270" as="sourcePoint" />
            <mxPoint x="160" y="270" as="targetPoint" />
            <Array as="points" />
          </mxGeometry>
        </mxCell>
        <mxCell id="1s9dPwqFM8-csKDG2qS5-81" value="M" style="text;html=1;align=center;verticalAlign=middle;resizable=0;points=[];autosize=1;strokeColor=none;fillColor=none;" vertex="1" parent="1">
          <mxGeometry x="275" y="255" width="30" height="30" as="geometry" />
        </mxCell>
        <mxCell id="1s9dPwqFM8-csKDG2qS5-82" value="N" style="text;html=1;align=center;verticalAlign=middle;resizable=0;points=[];autosize=1;strokeColor=none;fillColor=none;" vertex="1" parent="1">
          <mxGeometry x="485" y="165" width="30" height="30" as="geometry" />
        </mxCell>
        <mxCell id="1s9dPwqFM8-csKDG2qS5-83" value="1" style="text;html=1;align=center;verticalAlign=middle;resizable=0;points=[];autosize=1;strokeColor=none;fillColor=none;" vertex="1" parent="1">
          <mxGeometry x="485" y="255" width="30" height="30" as="geometry" />
        </mxCell>
        <mxCell id="1s9dPwqFM8-csKDG2qS5-84" value="1" style="text;html=1;align=center;verticalAlign=middle;resizable=0;points=[];autosize=1;strokeColor=none;fillColor=none;" vertex="1" parent="1">
          <mxGeometry x="545" y="305" width="30" height="30" as="geometry" />
        </mxCell>
        <mxCell id="1s9dPwqFM8-csKDG2qS5-85" value="M" style="text;html=1;align=center;verticalAlign=middle;resizable=0;points=[];autosize=1;strokeColor=none;fillColor=none;" vertex="1" parent="1">
          <mxGeometry x="625" y="305" width="30" height="30" as="geometry" />
        </mxCell>
        <mxCell id="1s9dPwqFM8-csKDG2qS5-86" value="N" style="text;html=1;align=center;verticalAlign=middle;resizable=0;points=[];autosize=1;strokeColor=none;fillColor=none;" vertex="1" parent="1">
          <mxGeometry x="545" y="435" width="30" height="30" as="geometry" />
        </mxCell>
        <mxCell id="1s9dPwqFM8-csKDG2qS5-87" value="1" style="text;html=1;align=center;verticalAlign=middle;resizable=0;points=[];autosize=1;strokeColor=none;fillColor=none;" vertex="1" parent="1">
          <mxGeometry x="635" y="435" width="30" height="30" as="geometry" />
        </mxCell>
      </root>
    </mxGraphModel>
  </diagram>
</mxfile>
